<svg width="183" height="71" viewBox="0 0 183 71" fill="none" xmlns="http://www.w3.org/2000/svg">
<path d="M31.7427 34.7278L29.2748 25.203C28.9171 23.826 27.6922 22.8677 26.2902 22.8677H22.2217L21.6761 21.2227C21.4737 20.6095 20.9101 20.1982 20.2741 20.1982H16.7223C16.0863 20.1982 15.5227 20.6095 15.3203 21.2227L14.7783 22.8677H10.7098C9.31142 22.8677 8.08291 23.8297 7.72519 25.203L5.25732 34.7278C4.0541 35.0987 3.17969 36.2333 3.17969 37.5735V45.2845C3.17969 46.2906 3.98545 47.1057 4.97188 47.1057H5.84268V49.8155C5.84268 50.6895 6.54365 51.4018 7.40361 51.4018H9.74141C10.6014 51.4018 11.3023 50.6895 11.3023 49.8155V47.1057H25.6904V49.8155C25.6904 50.6895 26.3914 51.4018 27.2514 51.4018H29.5892C30.4491 51.4018 31.1501 50.6895 31.1501 49.8155V47.1057H32.0209C33.0073 47.1057 33.8131 46.2906 33.8131 45.2845V37.5735C33.8203 36.2333 32.9423 35.0987 31.7427 34.7278ZM9.82451 25.7684C9.9293 25.3609 10.2942 25.0745 10.7098 25.0745H26.2902C26.7058 25.0745 27.0707 25.3609 27.1755 25.7684L29.4663 34.603H7.53369L9.82451 25.7684ZM9.32227 43.2025C8.04678 43.2025 7.00977 42.1487 7.00977 40.8525C7.00977 39.5563 8.04678 38.5025 9.32227 38.5025C10.5978 38.5025 11.6348 39.5563 11.6348 40.8525C11.6348 42.1487 10.5978 43.2025 9.32227 43.2025ZM21.9326 41.5832H15.0602V40.1145H21.9326V41.5832ZM27.6741 43.2025C26.3986 43.2025 25.3616 42.1487 25.3616 40.8525C25.3616 39.5563 26.3986 38.5025 27.6741 38.5025C28.9496 38.5025 29.9866 39.5563 29.9866 40.8525C29.983 42.1487 28.946 43.2025 27.6741 43.2025Z" fill="#19CE60"/>
<path d="M40.276 49H45.604V22.324H40.276V49ZM52.1588 49H57.4868V41.512L60.9788 37.012L67.8908 49H73.7228L64.1468 32.836L72.2828 22.324H66.4148L57.5948 33.916H57.4868V22.324H52.1588V49ZM76.8385 49H93.5785V44.536H82.1665V37.408H91.5265V32.944H82.1665V26.788H93.1825V22.324H76.8385V49ZM103.487 49H108.815V39.244L116.843 22.324H111.299L108.635 28.84C107.879 30.82 107.087 32.692 106.259 34.744H106.115C105.287 32.692 104.567 30.82 103.811 28.84L101.147 22.324H95.4949L103.487 39.244V49ZM124.529 49H129.857V26.788H137.417V22.324H117.041V26.788H124.529V49ZM145.916 35.104C146.708 32.332 147.5 29.308 148.184 26.392H148.364C149.12 29.272 149.84 32.332 150.668 35.104L151.46 38.02H145.124L145.916 35.104ZM136.7 49H142.1L143.972 42.16H152.612L154.484 49H160.064L151.496 22.324H145.232L136.7 49ZM160.27 49H165.922L168.766 43.096C169.414 41.728 170.062 40.324 170.71 38.704H170.854C171.646 40.324 172.258 41.728 172.942 43.096L175.93 49H181.834L174.346 35.5L181.366 22.324H175.75L173.23 27.832C172.654 29.092 172.114 30.388 171.466 32.044H171.286C170.494 30.388 169.954 29.092 169.306 27.832L166.642 22.324H160.738L167.758 35.248L160.27 49Z" fill="#19CE60"/>
<path d="M77.414 7.80402V17.968H78.866V7.80402H77.414ZM73.421 8.51902C71.892 8.51902 70.759 9.90502 70.759 12.127C70.759 14.36 71.892 15.757 73.421 15.757C74.95 15.757 76.083 14.36 76.083 12.127C76.083 9.90502 74.95 8.51902 73.421 8.51902ZM73.421 9.82802C74.169 9.82802 74.686 10.631 74.686 12.127C74.686 13.634 74.169 14.437 73.421 14.437C72.673 14.437 72.156 13.634 72.156 12.127C72.156 10.631 72.673 9.82802 73.421 9.82802ZM80.9551 8.86002V10.015H84.2441C84.0461 12.226 83.0011 13.799 80.4711 15.075L81.2411 16.197C84.7391 14.448 85.7181 11.918 85.7181 8.86002H80.9551ZM87.6101 7.81502V11.698H85.6521V12.875H87.6101V17.946H89.0621V7.81502H87.6101ZM93.8855 8.78302V9.93802H97.2515C97.2075 10.422 97.1305 10.862 97.0315 11.28L93.3685 11.489L93.5555 12.71L96.5695 12.435C95.9755 13.557 94.9305 14.492 93.2805 15.317L94.0505 16.461C97.8455 14.558 98.6925 11.907 98.6925 8.78302H93.8855ZM100.177 7.80402V17.935H101.64V7.80402H100.177ZM107.096 12.435H105.171V9.76202H107.096V12.435ZM110.341 10.565V11.588H108.515V10.565H110.341ZM108.515 12.743H110.341V15.196H111.793V7.81502H110.341V9.41002H108.515V8.62902H103.741V13.579H108.515V12.743ZM106.557 16.615V14.503H105.105V17.77H112.013V16.615H106.557Z" fill="#19CE60"/>
<path d="M48.233 55.772H46.781V62.46H47.661C49.135 62.46 50.763 62.372 52.446 62.02L52.303 60.832C50.884 61.107 49.509 61.217 48.233 61.25V55.772ZM55.823 58.632H54.404V54.804H52.952V64.924H54.404V59.831H55.823V58.632ZM56.9551 57.378V60.502H57.8241C59.8481 60.502 61.1351 60.458 62.5431 60.194L62.4221 59.028C61.1571 59.259 60.0461 59.325 58.3961 59.336V58.456H61.5641V55.409H56.9441V56.575H60.1341V57.378H56.9551ZM61.2341 63.846C59.9141 63.846 59.2321 63.593 59.2321 63.032C59.2321 62.471 59.9141 62.218 61.2341 62.218C62.5541 62.218 63.2361 62.471 63.2361 63.032C63.2361 63.593 62.5541 63.846 61.2341 63.846ZM61.2341 61.107C59.1221 61.107 57.8021 61.811 57.8021 63.032C57.8021 64.242 59.1221 64.957 61.2341 64.957C63.3461 64.957 64.6661 64.242 64.6661 63.032C64.6661 61.811 63.3461 61.107 61.2341 61.107ZM64.5671 57.18V54.826H63.1151V60.898H64.5671V58.368H65.9091V57.18H64.5671ZM73.7575 59.226C72.8335 59.369 72.0305 59.424 70.9415 59.435V58.577H73.4275V57.477H70.9415V56.641H73.5265V55.497H69.5445V60.601H70.2485C71.7555 60.601 72.7345 60.568 73.8895 60.381L73.7575 59.226ZM70.8645 62.592H76.3865V64.957H77.8385V61.437H70.8645V62.592ZM76.4635 54.815V57.301H75.6495V54.991H74.2965V60.931H75.6495V58.456H76.4635V60.997H77.8385V54.815H76.4635ZM83.2496 55.596H81.7976V57.07C81.7976 59.039 80.9616 60.997 79.1906 61.756L80.0596 62.955C81.2696 62.383 82.0946 61.294 82.5456 59.941C82.9966 61.184 83.7776 62.185 84.9436 62.713L85.7686 61.536C84.0526 60.799 83.2496 58.951 83.2496 57.07V55.596ZM86.2636 54.804V64.968H87.7156V54.804H86.2636ZM91.2898 59.611H94.4578V58.478H91.2898V56.828H94.6008V55.651H89.8378V62.658H90.6958C92.4338 62.658 93.7978 62.614 95.3378 62.383L95.2058 61.228C93.8858 61.426 92.7198 61.481 91.2898 61.492V59.611ZM98.8468 58.654H97.3728V54.815H95.9208V64.957H97.3728V59.853H98.8468V58.654ZM107.723 57.554H102.146V55.178H100.694V58.709H107.723V57.554ZM102.058 61.712H100.595V64.726H107.778V63.571H102.058V61.712ZM99.5609 59.743V60.909H108.735V59.743H99.5609ZM110.043 55.86V57.015H113.332C113.134 59.226 112.089 60.799 109.559 62.075L110.329 63.197C113.827 61.448 114.806 58.918 114.806 55.86H110.043ZM116.698 54.815V58.698H114.74V59.875H116.698V64.946H118.15V54.815H116.698ZM121.636 56.927H124.914V55.75H120.195V62.537H121.053C122.813 62.537 124.199 62.482 125.728 62.207L125.585 61.008C124.276 61.228 123.077 61.305 121.636 61.327V56.927ZM129.204 58.555H127.73V54.815H126.278V64.968H127.73V59.754H129.204V58.555ZM131.392 61.228H132.8C132.635 59.677 134.549 59.149 134.549 57.587C134.549 56.179 133.581 55.497 132.261 55.497C131.304 55.497 130.523 55.948 129.951 56.597L130.842 57.411C131.194 57.048 131.579 56.795 132.063 56.795C132.635 56.795 132.998 57.147 132.998 57.697C132.998 58.742 131.128 59.457 131.392 61.228ZM132.096 64.154C132.679 64.154 133.108 63.692 133.108 63.098C133.108 62.493 132.679 62.042 132.096 62.042C131.524 62.042 131.095 62.493 131.095 63.098C131.095 63.692 131.524 64.154 132.096 64.154Z" fill="#19CE60"/>
</svg>
