<svg width="72" height="72" viewBox="0 0 72 72" xmlns="http://www.w3.org/2000/svg">
<path d="M36.0007 0C16.1493 0 0 16.1493 0 35.9978C0 55.8477 16.1493 71.9985 36.0007 71.9985C55.8507 71.9985 72 55.8477 72 35.9978C72 16.1493 55.8507 0 36.0007 0ZM36.0007 13.8938C42.4486 13.8938 47.6747 19.1214 47.6747 25.5678C47.6747 32.0156 42.4471 37.2447 36.0007 37.2447C29.5515 37.2447 24.3253 32.0156 24.3253 25.5678C24.3253 19.1199 29.5515 13.8938 36.0007 13.8938ZM19.4537 64.4572C19.8097 64.6643 20.1688 64.8654 20.5338 65.0576C20.1688 64.8654 19.8097 64.6643 19.4537 64.4572ZM36.0007 68.3292C26.1145 68.3292 17.2562 63.8628 11.3209 56.8489C12.985 49.0409 19.9095 43.0743 28.2047 43.0743H43.7938C52.1277 43.0743 59.0716 48.9768 60.697 56.825C54.7631 63.8538 45.8974 68.3292 36.0007 68.3292ZM60.8445 57.631C60.843 57.6325 60.843 57.634 60.8415 57.6369C60.843 57.634 60.843 57.6325 60.8445 57.631Z" fill="#19CE60"/>
<path d="M60.8441 57.631L60.8415 57.6362L60.8441 57.631Z" fill="#19CE60"/>
</svg>
